<?xml version="1.0" standalone="no"?>
<!DOCTYPE svg PUBLIC "-//W3C//DTD SVG 20010904//EN"
 "http://www.w3.org/TR/2001/REC-SVG-20010904/DTD/svg10.dtd">
<svg version="1.0" xmlns="http://www.w3.org/2000/svg"
 width="237.000000pt" height="213.000000pt" viewBox="0 0 237.000000 213.000000"
 preserveAspectRatio="xMidYMid meet">

<g transform="translate(0.000000,213.000000) scale(0.100000,-0.100000)"
fill="#000000" stroke="none">
<path d="M2346 2121 c-3 -5 1 -14 9 -21 13 -10 15 -9 15 9 0 21 -14 28 -24 12z"/>
<path d="M1507 1773 c-11 -10 -8 -51 3 -58 14 -9 12 -41 -3 -53 -20 -17 -40 2
-32 29 7 21 6 22 -8 11 -26 -22 -31 -51 -11 -73 24 -26 60 -24 79 5 15 22 15
28 0 62 -9 22 -13 49 -10 61 5 22 -4 30 -18 16z"/>
<path d="M1238 1707 c3 -38 -1 -47 -37 -88 -48 -55 -61 -85 -61 -143 0 -30 8
-54 25 -77 64 -90 83 -160 49 -193 -20 -21 -30 -20 -55 5 -15 15 -19 28 -14
47 14 60 17 83 11 99 -6 15 -9 14 -19 -7 -17 -35 -54 -38 -68 -7 -8 18 -8 30
0 45 16 29 14 97 -3 111 -12 10 -15 7 -14 -17 1 -15 -11 -50 -27 -75 -29 -50
-30 -82 -4 -144 10 -26 10 -34 0 -47 -18 -22 -44 -20 -66 4 -17 19 -18 25 -6
63 24 79 24 91 1 117 l-21 25 3 -37 c2 -20 1 -35 -2 -33 -17 11 -50 -75 -50
-129 0 -43 -4 -58 -16 -63 -22 -8 -47 25 -39 55 3 12 1 22 -4 22 -21 0 -41
-46 -41 -95 0 -30 -10 -74 -25 -110 -27 -65 -33 -151 -14 -188 14 -27 45 -57
58 -57 5 0 8 -6 7 -12 -7 -37 -19 -55 -53 -73 -76 -41 -109 -139 -62 -186 20
-20 29 -21 163 -17 89 3 151 9 168 18 24 11 32 11 61 -5 29 -15 51 -17 153
-13 134 6 172 18 235 75 54 49 81 104 87 178 5 66 -8 104 -47 139 -20 18 -22
18 -40 2 -19 -17 -18 -18 4 -42 66 -72 19 -215 -88 -269 -45 -22 -63 -25 -164
-25 -124 0 -128 2 -99 58 20 38 49 50 133 54 79 4 113 23 113 63 0 30 -14 39
-82 54 -105 22 -153 72 -144 149 17 138 119 206 302 200 83 -3 89 -5 92 -25 2
-13 -9 -34 -26 -55 -29 -31 -35 -33 -116 -38 -90 -6 -126 -24 -126 -61 0 -23
9 -28 89 -49 64 -16 68 -16 89 1 13 10 22 21 21 26 -4 22 3 32 31 43 43 18 77
63 96 125 8 30 20 57 25 60 15 10 10 62 -8 76 -11 9 -14 10 -9 2 10 -18 -12
-53 -34 -53 -27 0 -42 32 -30 65 19 50 12 100 -20 140 -18 22 -30 50 -30 66 0
38 -15 37 -28 -1 -9 -24 -7 -37 13 -75 26 -48 24 -75 -5 -75 -23 0 -44 26 -36
45 8 23 -12 18 -25 -6 -8 -16 -8 -33 1 -66 9 -38 8 -49 -5 -69 -18 -27 -33
-30 -60 -10 -30 22 -24 80 19 159 20 38 36 81 36 96 0 37 -32 76 -72 90 -30
11 -30 10 -15 -7 20 -22 22 -83 5 -100 -19 -19 -66 -15 -78 7 -16 32 -12 68
16 122 31 58 34 117 10 154 -24 36 -32 31 -28 -18z m-33 -117 c-3 -5 -12 -10
-18 -10 -7 0 -6 4 3 10 19 12 23 12 15 0z m-5 -444 c0 -3 -4 -8 -10 -11 -5 -3
-10 -1 -10 4 0 6 5 11 10 11 6 0 10 -2 10 -4z m-27 -40 c-1 -17 -14 -41 -28
-55 -22 -22 -37 -27 -110 -32 -89 -5 -125 -23 -125 -60 0 -22 16 -31 103 -54
77 -20 126 -60 128 -103 3 -82 -17 -136 -68 -184 -50 -48 -90 -58 -229 -58
l-126 0 6 28 c4 15 20 39 37 55 27 25 36 27 107 27 90 0 142 23 142 63 0 27
-17 47 -40 47 -36 0 -121 32 -149 56 -55 46 -50 144 11 218 55 67 110 85 248
83 l95 -2 -2 -29z m37 14 c0 -5 -5 -10 -11 -10 -5 0 -7 5 -4 10 3 6 8 10 11
10 2 0 4 -4 4 -10z"/>
<path d="M962 1658 c-7 -7 -12 -21 -12 -32 1 -21 1 -21 12 -1 6 11 18 26 26
33 14 10 14 12 1 12 -8 0 -20 -5 -27 -12z"/>
<path d="M957 1581 c-3 -13 -10 -20 -16 -16 -6 3 -11 -1 -11 -9 0 -22 20 -30
36 -14 10 10 12 21 6 38 l-9 24 -6 -23z"/>
<path d="M1691 1498 c-1 -21 -27 -24 -34 -5 -3 6 -6 2 -6 -10 -1 -17 5 -23 19
-23 22 0 35 21 27 42 -4 8 -6 6 -6 -4z"/>
<path d="M0 102 l0 -102 1185 0 1185 0 0 80 0 80 -1162 0 -1162 0 -23 22 -23
21 0 -101z m150 -7 c11 -13 15 -13 21 -3 6 9 9 5 10 -12 1 -14 3 -18 5 -10 6
21 44 45 44 28 0 -9 3 -8 10 2 7 10 12 12 18 4 9 -14 114 -13 125 1 4 6 10 5
16 -4 5 -7 13 -11 19 -7 6 3 13 2 17 -4 6 -9 -7 -14 -27 -11 -5 0 -8 -7 -8
-17 0 -12 -9 -18 -31 -19 -23 -2 -30 1 -25 12 3 8 1 17 -3 20 -5 2 -11 -3 -13
-13 -7 -26 -47 -25 -58 1 -8 21 -9 21 -9 2 -1 -30 -41 -31 -42 -2 0 21 -1 21
-8 2 -11 -28 -61 -29 -62 0 -1 20 -1 20 -7 0 -8 -24 -57 -28 -58 -5 0 20 16
41 27 34 5 -3 9 0 9 5 0 16 16 13 30 -4z m363 3 c7 -7 13 -22 14 -33 2 -19 -3
-21 -50 -19 -29 1 -53 2 -55 3 -2 1 9 12 24 26 14 13 30 22 35 19 5 -3 9 0 9
5 0 15 9 14 23 -1z m1567 -4 c0 -2 -9 -4 -20 -4 -11 0 -20 4 -20 9 0 5 9 7 20
4 11 -3 20 -7 20 -9z"/>
<path d="M470 70 c0 -5 5 -10 10 -10 6 0 10 5 10 10 0 6 -4 10 -10 10 -5 0
-10 -4 -10 -10z"/>
</g>
</svg>
